<svg xmlns="http://www.w3.org/2000/svg" baseProfile="tiny" viewBox="0 0 211.7 80"><path fill="#2279bc" d="M79.2 12.7h8.7v54.6h-8.7zm55.5 7.8c-2.6-2.5-5.6-4.4-8.9-5.7-3.7-1.4-7.6-2.1-11.6-2.1H94.7v54.6h19.5c4 0 7.9-.7 11.6-2.1 3.3-1.2 6.4-3.1 8.9-5.6 2.5-2.4 4.4-5.4 5.7-8.6 1.4-3.5 2.1-7.2 2-11 0-3.7-.7-7.4-2-10.9-1.3-3.2-3.3-6.2-5.7-8.6m-.9 19.6c0 11.6-8.1 19.8-19.6 19.8h-11V20.2h11.1c11.7 0 19.6 8 19.6 19.8Zm58.3 10.8c-4.1 5.6-10.5 8.8-17.4 8.8-10.4.3-19.1-7.8-19.4-18.2v-1.3c0-11.3 8.3-19.9 19.4-19.9 6.7 0 13.1 3.4 17 8.8l6.1-5.5c-2.4-3.6-5.7-6.5-9.6-8.4-4.2-2.2-8.9-3.3-13.7-3.4-7.4 0-14.5 2.7-19.8 7.9-2.6 2.5-4.7 5.6-6.1 8.9-1.5 3.6-2.3 7.5-2.2 11.5 0 3.9.7 7.7 2.2 11.3 1.4 3.3 3.4 6.3 6 8.7 5.3 5 12.4 7.8 19.7 7.6 4.9 0 9.7-1.1 14-3.3 3.9-2 7.2-4.9 9.8-8.4l-6-5.4ZM23.9 62c2.7 2.2 5.8 4 9.1 5.1h18.3q3.45-1.2 6.6-3.3c.2-.2.3-.5.2-.7 0-.2-.3-.2-.4-.2h-17c-1.3 0-2.5-.7-3.2-1.8-.1-.2-.4-.3-.6-.3H24.5c-.4 0-.7.3-.7.7 0 .2 0 .4.3.5Zm36.4-44c-2.6-2.2-5.6-3.9-8.8-5-.3 0-.6-.2-.9-.2H33.7c-.3 0-.6 0-.9.2-2.2.8-4.4 1.9-6.3 3.2-.2.1-.3.4-.2.7 0 .2.3.3.5.3h17c1.3 0 2.6.7 3.3 1.8.1.2.4.3.6.3h12.4c.4 0 .7-.3.7-.7 0-.2 0-.4-.3-.6Zm10.3 20.9c0-.6-.5-1-1.1-1h-11c-.6 0-1.1-.3-1.3-.8-.2-.4-.6-.6-1-.6H15.1c-.7 0-1.4.6-1.4 1.3s-.1 1.5-.1 2.3v1.1c0 .6.5 1 1.1 1h11.1c.6 0 1.1.3 1.3.8.2.4.6.6 1 .6h41.2c.7 0 1.4-.6 1.4-1.3v-3.4Zm-18.8-9.6c1.2 0 2.4.6 3 1.7.2.3.5.5.9.5h12.2c.6 0 1.1-.5 1-1.1v-.3c-.7-1.7-1.5-3.4-2.5-5-.3-.4-.7-.7-1.2-.7H19c-.5 0-1 .2-1.3.6-.6 1-1.2 2-1.7 3.1-.2.4 0 1 .4 1.2h35.3ZM32.4 50.7c-1.2 0-2.4-.6-3-1.7-.2-.3-.5-.5-.9-.5H16.4c-.6 0-1.1.5-1.1 1.1v.4c.6 1.7 1.4 3.4 2.4 5 .3.4.7.7 1.2.7h46.2c.5 0 1-.2 1.2-.7.6-1 1.2-2 1.7-3.1.2-.4 0-1-.4-1.2z"/></svg>