<svg xmlns="http://www.w3.org/2000/svg" viewBox="0 0 397.76 140.12"><path fill="#7c7b7b" d="M42.45 131.15c-.24 0-.32-.12-.25-.35l4.98-14.25c.07-.17.18-.25.33-.25h2.37c.17 0 .28.08.33.25l4.98 14.25s.02.07.02.12c0 .15-.09.23-.27.23H52.9c-.19 0-.31-.08-.35-.25l-1.02-3.14h-5.69l-1.02 3.14c-.06.17-.17.25-.35.25h-2.04Zm6.22-12.11-2.1 6.46h4.28l-2.1-6.46zm230.28 11.98c-.83.26-1.69.38-2.58.38-1.07 0-2.03-.19-2.9-.58s-1.55-.98-2.07-1.77c-.51-.79-.77-1.77-.77-2.95v-4.74c0-1.18.26-2.16.77-2.96s1.2-1.39 2.06-1.78 1.81-.58 2.87-.58c.79 0 1.57.12 2.35.36s1.47.58 2.1 1.03c.08.06.12.13.12.23 0 .06-.02.12-.06.19l-.98 1.41c-.06.1-.13.15-.23.15-.06 0-.12-.02-.21-.06-.46-.32-.95-.55-1.48-.71a6 6 0 0 0-1.61-.23c-1 0-1.78.26-2.34.79s-.84 1.25-.84 2.18v4.65c0 .94.28 1.68.84 2.2.56.53 1.35.79 2.36.79.61 0 1.21-.09 1.82-.28.6-.19 1.15-.45 1.63-.8.08-.06.15-.08.19-.08.08 0 .16.05.23.17l.98 1.41c.06.11.08.18.08.21 0 .08-.04.16-.12.23-.64.5-1.37.88-2.2 1.13Zm13.19-3.82q0 1.935-1.29 3.06c-1.29 1.125-2.01 1.13-3.45 1.13s-2.59-.38-3.45-1.13-1.29-1.78-1.29-3.06v-2.78q0-1.95 1.29-3.12c.86-.78 2.01-1.16 3.45-1.16s2.59.39 3.45 1.16 1.29 1.81 1.29 3.12zm-7.04 0c0 .67.2 1.17.59 1.52s.97.52 1.71.52 1.32-.17 1.71-.52.59-.85.59-1.52v-2.78c0-.68-.2-1.2-.6-1.57s-.97-.55-1.7-.55-1.32.18-1.71.54-.59.89-.59 1.58zm17.84-6.83c.48-.15 1.02-.23 1.6-.23 1.34 0 2.42.38 3.24 1.15s1.22 1.86 1.22 3.27v6.27c0 .21-.1.31-.29.31h-1.81c-.19 0-.29-.1-.29-.31v-6.36c0-1.44-.71-2.16-2.14-2.16-.69 0-1.3.17-1.83.52q.27.81.27 1.68v6.31c0 .21-.1.31-.31.31h-1.79c-.21 0-.31-.1-.31-.31v-6.36c0-.75-.17-1.3-.52-1.65s-.86-.53-1.54-.53c-.6 0-1.15.08-1.66.23v8.31c0 .21-.1.31-.31.31h-1.79c-.21 0-.31-.1-.31-.31v-9.51c0-.18.08-.3.25-.37 1.23-.54 2.49-.81 3.76-.81 1.19 0 2.19.32 3.01.96.54-.33 1.05-.57 1.54-.73Zm10.81-.03c.75-.13 1.48-.2 2.17-.2 1.44 0 2.6.38 3.47 1.14s1.31 1.9 1.31 3.41v2.28c0 .89-.2 1.67-.59 2.34s-.94 1.19-1.64 1.55-1.49.54-2.36.54c-.76 0-1.5-.15-2.2-.46v3.84c0 .21-.1.31-.31.31h-1.79c-.21 0-.31-.1-.31-.31v-13.56c0-.17.08-.28.23-.33.6-.24 1.27-.42 2.03-.55Zm3.9 8.37q.6-.57.6-1.71v-2.33c0-.86-.2-1.47-.6-1.85-.4-.37-1-.56-1.79-.56-.83 0-1.48.1-1.95.29v6.15c.57.39 1.23.58 1.99.58s1.34-.19 1.75-.57m9.28-8.57c1.34 0 2.4.35 3.17 1.05s1.15 1.75 1.15 3.17v6.07c0 .17-.08.28-.23.35q-.87.27-1.98.45t-2.19.18c-1.34 0-2.45-.28-3.32-.83s-1.31-1.43-1.31-2.64c0-1.09.41-1.92 1.24-2.48.82-.56 1.93-.84 3.31-.84.55 0 1.25.06 2.08.17v-.4c0-.75-.16-1.28-.47-1.61s-.85-.49-1.61-.49q-.75 0-1.44.18c-.46.12-.87.28-1.21.49a.4.4 0 0 1-.19.06c-.1 0-.17-.05-.23-.15l-.83-1.27c-.1-.15-.1-.27 0-.35 1.07-.73 2.42-1.1 4.07-1.1Zm-1.68 8.82c.4.23.94.34 1.6.34s1.3-.08 1.99-.25v-2.35c-.75-.11-1.42-.17-2.01-.17-1.45 0-2.18.46-2.18 1.37q0 .705.6 1.05Zm8.79 2.19c-.21 0-.31-.1-.31-.31v-9.51c0-.18.08-.3.23-.37 1.25-.54 2.62-.81 4.13-.81s2.69.38 3.54 1.13 1.28 1.93 1.28 3.52v6.04c0 .21-.1.31-.29.31h-1.81c-.21 0-.31-.1-.31-.31v-6c0-.93-.2-1.58-.6-1.96s-1-.57-1.81-.57c-.72 0-1.37.08-1.95.23v8.31c0 .21-.1.31-.31.31h-1.79Zm17.92-10.47c0-.19.1-.29.31-.29h1.79c.21 0 .31.1.31.29v9.78c0 1.62-.38 2.83-1.13 3.63s-1.92 1.21-3.5 1.21c-.87 0-1.63-.1-2.29-.31-.65-.21-1.25-.54-1.79-1-.08-.06-.12-.12-.12-.21 0-.06.02-.12.06-.21l.89-1.27c.07-.11.15-.17.23-.17.06 0 .11.02.17.06.93.64 1.87.96 2.83.96.78 0 1.36-.2 1.74-.61.39-.41.56-1.1.52-2.09-.8.25-1.54.37-2.22.37-.75 0-1.46-.16-2.14-.48s-1.23-.8-1.66-1.43c-.43-.64-.64-1.41-.64-2.33v-5.92c0-.19.1-.29.31-.29h1.81c.19 0 .29.1.29.29v5.82c0 .76.23 1.31.7 1.65.46.34 1.06.51 1.78.51.32 0 .63-.04.95-.11s.58-.18.82-.3v-7.56Z" style="isolation:isolate"/><path fill="#010101" d="M192.87 131.04c-1.09.47-2.3.71-3.63.71s-2.45-.24-3.52-.72-1.92-1.2-2.56-2.17-.96-2.16-.96-3.57v-5.75c0-1.41.31-2.6.92-3.57s1.44-1.68 2.48-2.16c1.04-.47 2.19-.71 3.45-.71 1.06 0 2.12.15 3.19.44s2.02.71 2.86 1.25c.13.1.2.21.2.33 0 .05-.03.12-.08.2l-1.26 1.74c-.07.12-.16.18-.28.18-.07 0-.14-.03-.23-.08-1.33-.79-2.81-1.18-4.44-1.18-1.14 0-2.06.31-2.75.92s-1.03 1.52-1.03 2.71v5.65c0 1.19.37 2.09 1.12 2.7.75.6 1.7.91 2.86.91.72 0 1.39-.1 2-.29s1.12-.45 1.53-.77v-3.83h-3.38c-.24 0-.35-.13-.35-.38v-1.97c0-.25.12-.38.35-.38h6c.24 0 .35.13.35.38v7.08c0 .2-.04.34-.13.4-.74.81-1.66 1.45-2.75 1.92h.04Zm15.96.41c-.19 0-.33-.08-.43-.25l-4.41-6.33h-2.24v6.2c0 .25-.12.38-.35.38h-2.32c-.24 0-.35-.13-.35-.38V113.8c0-.25.12-.38.35-.38h5.85q3.105 0 4.83 1.53c1.15 1.02 1.73 2.42 1.73 4.22 0 1.38-.37 2.53-1.1 3.45q-1.095 1.38-3.09 1.92l4.61 6.45c.05.07.08.14.08.23 0 .15-.1.23-.3.23zm-7.09-15.23v5.92h3.18q1.77 0 2.61-.72c.84-.72.84-1.22.84-2.23s-.28-1.78-.84-2.26-1.43-.72-2.61-.72h-3.18Zm26.1 8.52c0 2.2-.62 3.92-1.87 5.16-1.24 1.24-2.98 1.85-5.22 1.85s-3.97-.62-5.22-1.85c-1.24-1.24-1.87-2.95-1.87-5.16v-4.64c0-2.2.62-3.92 1.87-5.14 1.24-1.23 2.98-1.84 5.22-1.84s3.97.61 5.22 1.84c1.24 1.23 1.87 2.94 1.87 5.14zm-11.07 0c0 1.34.34 2.37 1.01 3.08s1.66 1.06 2.97 1.06 2.3-.35 2.97-1.06 1.01-1.73 1.01-3.08v-4.61c0-1.36-.34-2.4-1.01-3.1-.67-.71-1.66-1.06-2.97-1.06s-2.3.35-2.97 1.06-1.01 1.74-1.01 3.1zm27.68.43q0 1.965-.84 3.45c-.56.99-1.37 1.76-2.41 2.31s-2.25.82-3.63.82-2.56-.27-3.59-.82-1.83-1.31-2.4-2.31q-.84-1.485-.84-3.45V113.8c0-.25.13-.38.38-.38h2.34c.25 0 .38.13.38.38v11.19c0 1.26.32 2.23.97 2.91s1.57 1.02 2.76 1.02 2.12-.34 2.79-1.02c.66-.68 1-1.65 1-2.91V113.8c0-.25.13-.38.38-.38h2.34c.25 0 .38.13.38.38v11.37zm10.24-11.75c1.98 0 3.53.55 4.65 1.64s1.68 2.6 1.68 4.51-.56 3.47-1.68 4.55-2.67 1.63-4.65 1.63h-3.71v5.32c0 .25-.12.38-.35.38h-2.32c-.24 0-.35-.13-.35-.38V113.8c0-.25.12-.38.35-.38zm-.36 9.51c1.23 0 2.13-.27 2.71-.82s.87-1.39.87-2.53-.29-1.98-.87-2.52-1.48-.81-2.71-.81h-3.35v6.68zm-176.92 6.44c-.62.82-1.45 1.42-2.5 1.8-1.04.39-2.2.58-3.48.58s-2.34-.19-3.34-.58-2.03-1-3.09-1.84q-.15-.15-.15-.3a.4.4 0 0 1 .08-.23l1.26-1.77c.07-.1.16-.15.28-.15a.4.4 0 0 1 .23.08q1.29.93 2.46 1.41c1.17.48 1.58.49 2.41.5 1.01 0 1.87-.21 2.58-.64s1.07-1.05 1.07-1.85c0-.57-.18-1.03-.53-1.37s-.81-.61-1.36-.79-1.29-.37-2.19-.55c-1.75-.37-3.21-.96-4.37-1.78-1.17-.81-1.75-2.06-1.75-3.74s.63-2.92 1.9-3.76q1.905-1.26 4.83-1.26c1.08 0 2.08.16 3 .47s1.9.82 2.92 1.53c.12.07.18.16.18.28 0 .07-.03.14-.08.23l-1.21 1.74c-.08.1-.18.15-.28.15-.07 0-.15-.03-.25-.08-1.43-.92-2.93-1.41-4.51-1.46-1.08 0-1.92.2-2.52.59-.6.4-.91.94-.91 1.63 0 .5.16.91.47 1.22s.72.56 1.24.74c.51.19 1.22.38 2.13.58 1.28.29 2.36.61 3.25.97s1.64.92 2.26 1.66c.61.75.92 1.74.92 2.96s-.31 2.22-.93 3.04h-.02Zm6.48 1.7c0 .25-.12.38-.35.38h-2.32c-.24 0-.35-.13-.35-.38V113.8c0-.25.12-.38.35-.38h2.32c.24 0 .35.13.35.38zm3.98.38c-.24 0-.35-.13-.35-.38V113.8c0-.25.12-.38.35-.38h2.75c.2 0 .34.09.4.28l3.08 5.72a93 93 0 0 1 2.15 4.43h.1c.27-.61.62-1.35 1.05-2.24s.79-1.62 1.1-2.19l3.05-5.72c.1-.18.24-.28.43-.28h2.72c.25 0 .38.13.38.38v17.27c0 .25-.13.38-.38.38h-2.29c-.24 0-.35-.13-.35-.38V126c0-1.98.07-4.62.2-7.92l-.08-.03c-.5 1.09-1.26 2.65-2.27 4.66l-2.22 4.31c-.08.19-.23.28-.43.28h-1.92c-.2 0-.34-.09-.43-.28l-2.22-4.31c-1.01-2.02-1.76-3.57-2.27-4.66l-.08.03c.13 3.29.2 5.93.2 7.92v5.07c0 .25-.13.38-.38.38zm27.56-18.03c1.98 0 3.53.55 4.65 1.64s1.68 2.6 1.68 4.51-.56 3.47-1.68 4.55-2.67 1.63-4.65 1.63h-3.71v5.32c0 .25-.12.38-.35.38h-2.32c-.24 0-.35-.13-.35-.38V113.8c0-.25.12-.38.35-.38zm-.35 9.51c1.23 0 2.13-.27 2.71-.82s.87-1.39.87-2.53-.29-1.98-.87-2.52-1.48-.81-2.71-.81h-3.35v6.68zm9.4 8.52c-.24 0-.35-.13-.35-.38V113.8c0-.25.12-.38.35-.38h2.34c.24 0 .35.13.35.38v14.85h7.41c.25 0 .38.12.38.35v2.07c0 .25-.13.38-.38.38h-10.11zm15.38-.38c0 .25-.12.38-.35.38h-2.32c-.24 0-.35-.13-.35-.38V113.8c0-.25.12-.38.35-.38h2.32c.24 0 .35.13.35.38zm14.7-17.65h-10.72c-.23 0-.35.12-.35.38v17.27c0 .25.12.38.35.38h2.32c.23 0 .35-.13.35-.38v-14.85h8.04c.25 0 .38-.12.38-.36v-2.07c0-.25-.13-.38-.38-.38Zm7.56 18.03c-.25 0-.38-.13-.38-.38v-6.28l-5.8-10.92c-.03-.1-.05-.17-.05-.2 0-.17.11-.25.33-.25h2.65c.2 0 .34.09.4.28l4.01 8.29 3.98-8.29c.07-.18.21-.28.43-.28h2.65c.2 0 .3.08.3.25v.12c0 .02-.04.09-.04.09l-5.77 10.97v6.23c0 .25-.13.38-.38.38h-2.32Z"/><path fill="#009e5d" d="M154.93 120.72v-.06s0-.03-.02-.04l-.02-.02s-.02-.01-.03-.01h-.06l-.74.12-6.32 1.08c-.12.02-.16.19-.05.25l2.62 1.57.34 3.04c0 .13.18.17.25.06l4.03-5.92z"/><path fill="#221f20" d="M4.74 59.57c1.84 1.13 4.52 2.07 7.34 2.07 4.19 0 6.63-2.21 6.63-5.41 0-2.96-1.69-4.66-5.98-6.3-5.18-1.84-8.37-4.52-8.37-8.99 0-4.94 4.09-8.61 10.26-8.61 3.25 0 5.6.75 7.01 1.55l-1.13 3.34c-1.04-.56-3.15-1.51-6.02-1.51-4.33 0-5.98 2.59-5.98 4.75 0 2.96 1.93 4.42 6.3 6.12 5.36 2.07 8.09 4.66 8.09 9.32 0 4.89-3.62 9.13-11.1 9.13-3.06 0-6.4-.89-8.09-2.02l1.04-3.43Zm28.23-24.18c.05 1.41-.99 2.54-2.63 2.54-1.46 0-2.49-1.13-2.49-2.54s1.08-2.59 2.59-2.59 2.54 1.13 2.54 2.59Zm-4.61 29.17V41.79h4.14v22.77zm11.01-16.61c0-2.35-.05-4.28-.19-6.16h3.62l.19 3.67h.14c1.27-2.16 3.39-4.19 7.15-4.19 3.11 0 5.46 1.88 6.45 4.56h.09c.71-1.27 1.6-2.26 2.54-2.96 1.36-1.03 2.87-1.6 5.03-1.6 3.01 0 7.48 1.98 7.48 9.88v13.41h-4.05V51.67c0-4.38-1.6-7.01-4.94-7.01-2.35 0-4.19 1.74-4.89 3.76-.19.57-.33 1.32-.33 2.07v14.07h-4.05V50.92c0-3.62-1.6-6.26-4.75-6.26-2.59 0-4.47 2.07-5.13 4.14-.24.61-.33 1.32-.33 2.02v13.74h-4.05V47.95zm39.24 1.27c0-2.92-.09-5.27-.19-7.43h3.72l.19 3.9h.09c1.69-2.78 4.38-4.42 8.09-4.42 5.51 0 9.65 4.66 9.65 11.57 0 8.19-4.99 12.23-10.35 12.23-3.01 0-5.65-1.32-7.01-3.58h-.09v12.37h-4.09V49.21Zm4.09 6.07c0 .61.09 1.18.19 1.69.75 2.87 3.25 4.85 6.21 4.85 4.38 0 6.92-3.58 6.92-8.8 0-4.56-2.4-8.47-6.78-8.47-2.82 0-5.46 2.02-6.26 5.13-.14.52-.28 1.13-.28 1.69v3.9Zm22.68-24.14h4.14v33.41h-4.14zm15.72 4.24c.05 1.41-.99 2.54-2.63 2.54-1.46 0-2.49-1.13-2.49-2.54s1.08-2.59 2.59-2.59 2.54 1.13 2.54 2.59zm-4.61 29.17V41.79h4.14v22.77zm11.43 0V44.94h-3.2v-3.15h3.2v-1.08c0-3.2.71-6.12 2.63-7.95 1.55-1.51 3.62-2.12 5.55-2.12 1.46 0 2.73.33 3.53.66l-.56 3.2c-.61-.28-1.46-.52-2.63-.52-3.53 0-4.42 3.11-4.42 6.59v1.22h5.51v3.15h-5.51v19.62zm14.82-22.77 4.99 13.46c.52 1.51 1.08 3.29 1.46 4.66h.09c.42-1.36.89-3.11 1.46-4.75l4.52-13.36h4.38l-6.21 16.23c-2.96 7.81-4.99 11.81-7.81 14.26-2.02 1.79-4.05 2.49-5.08 2.68l-1.03-3.48c1.03-.33 2.4-.99 3.62-2.02 1.13-.89 2.54-2.49 3.48-4.61.19-.42.33-.75.33-.99s-.09-.56-.28-1.08l-8.42-20.98h4.52zm32.51-8.94v13.27h15.34V32.85h4.14v31.71h-4.14V49.69h-15.34v14.87h-4.09V32.85zM204 53.92c.09 5.6 3.67 7.9 7.81 7.9 2.96 0 4.75-.52 6.3-1.18l.71 2.96c-1.46.66-3.95 1.41-7.57 1.41-7.01 0-11.2-4.61-11.2-11.48s4.05-12.28 10.68-12.28c7.43 0 9.41 6.54 9.41 10.73 0 .85-.09 1.51-.14 1.93h-16Zm12.14-2.96c.05-2.63-1.08-6.73-5.74-6.73-4.19 0-6.02 3.86-6.35 6.73zm21.74 13.6-.33-2.87h-.14c-1.27 1.79-3.72 3.39-6.96 3.39-4.61 0-6.96-3.25-6.96-6.54 0-5.51 4.89-8.52 13.69-8.47v-.47c0-1.88-.52-5.27-5.18-5.27-2.12 0-4.33.66-5.93 1.69l-.94-2.73c1.88-1.22 4.61-2.02 7.48-2.02 6.96 0 8.66 4.75 8.66 9.32v8.52c0 1.98.09 3.9.38 5.46h-3.77Zm-.61-11.62c-4.52-.09-9.64.71-9.64 5.13 0 2.68 1.79 3.95 3.9 3.95 2.96 0 4.85-1.88 5.51-3.81.14-.42.23-.89.23-1.32zm10.68-21.79h4.14v33.41h-4.14zm16.09 4.1v6.54h5.93v3.15h-5.93v12.28c0 2.82.8 4.42 3.11 4.42 1.08 0 1.88-.14 2.4-.28l.19 3.11c-.8.33-2.07.56-3.67.56-1.93 0-3.48-.61-4.47-1.74-1.18-1.22-1.6-3.25-1.6-5.93V44.94h-3.53v-3.15H260v-5.46l4.05-1.08Zm10.59-4.1h4.14v14.21h.09c.66-1.18 1.69-2.21 2.96-2.92 1.22-.71 2.68-1.18 4.24-1.18 3.06 0 7.95 1.88 7.95 9.74v13.55h-4.14V51.47c0-3.67-1.36-6.78-5.27-6.78-2.68 0-4.8 1.88-5.55 4.14-.24.57-.28 1.18-.28 1.98v13.74h-4.14zm42.34 32.56c-1.08.56-3.48 1.32-6.54 1.32-6.87 0-11.34-4.66-11.34-11.62s4.8-12.09 12.23-12.09c2.45 0 4.61.61 5.74 1.18l-.94 3.2c-.99-.57-2.54-1.08-4.8-1.08-5.22 0-8.05 3.86-8.05 8.61 0 5.27 3.39 8.52 7.9 8.52 2.35 0 3.9-.61 5.08-1.13l.71 3.11v-.02Zm17.46.85-.33-2.87h-.14c-1.27 1.79-3.72 3.39-6.96 3.39-4.61 0-6.96-3.25-6.96-6.54 0-5.51 4.89-8.52 13.69-8.47v-.47c0-1.88-.52-5.27-5.18-5.27-2.12 0-4.33.66-5.93 1.69l-.94-2.73c1.88-1.22 4.61-2.02 7.48-2.02 6.96 0 8.66 4.75 8.66 9.32v8.52c0 1.98.09 3.9.38 5.46h-3.77Zm-.61-11.62c-4.52-.09-9.65.71-9.65 5.13 0 2.68 1.79 3.95 3.91 3.95 2.96 0 4.85-1.88 5.5-3.81.14-.42.24-.89.24-1.32zm10.68-4.05c0-2.68-.05-4.99-.19-7.1h3.62l.14 4.47h.19c1.04-3.06 3.53-4.99 6.3-4.99.47 0 .8.05 1.18.14v3.91c-.42-.09-.85-.14-1.41-.14-2.92 0-4.99 2.21-5.55 5.32-.09.56-.19 1.22-.19 1.93v12.14h-4.09V48.9Zm17.22 5.03c.09 5.6 3.67 7.9 7.81 7.9 2.96 0 4.75-.52 6.3-1.18l.71 2.96c-1.46.66-3.95 1.41-7.58 1.41-7.01 0-11.2-4.61-11.2-11.48s4.05-12.28 10.68-12.28c7.43 0 9.41 6.54 9.41 10.73 0 .85-.09 1.51-.14 1.93h-16 .01Zm12.14-2.96c.05-2.63-1.08-6.73-5.74-6.73-4.19 0-6.02 3.86-6.35 6.73z"/><path fill="#105299" d="M28.37 20.86c6.85-5.61 14.7-9.91 23.01-12.58 8.31-2.68 17.05-3.73 25.6-3.12 8.54.61 16.88 2.88 24.35 6.67a60.8 60.8 0 0 1 19.26 15.32 59.4 59.4 0 0 0-20.41-12.74c-7.5-2.77-15.48-3.95-23.3-3.61S61.41 13 54.47 16.17a60.3 60.3 0 0 0-18.36 12.98z"/><path fill="#d6b73e" d="M120.61 76.83c-6.85 5.61-14.71 9.91-23.02 12.58-8.31 2.68-17.06 3.73-25.61 3.11-8.54-.61-16.89-2.88-24.36-6.68-7.48-3.78-14.06-9.06-19.26-15.33 5.91 5.63 12.91 9.99 20.41 12.75 7.5 2.78 15.49 3.96 23.3 3.61 7.82-.34 15.47-2.2 22.42-5.36a60.1 60.1 0 0 0 18.37-12.98l7.75 8.29"/><path fill="#221f20" d="M394.22 37.12c0 3.39-2.6 6.04-5.99 6.04s-6.02-2.66-6.02-6.04 2.67-5.97 6.02-5.97 5.99 2.66 5.99 5.97m-10.52 0c0 2.66 1.93 4.77 4.56 4.77s4.46-2.11 4.46-4.73-1.89-4.8-4.49-4.8-4.53 2.15-4.53 4.77Zm3.6 3.13h-1.35v-5.97c.53-.11 1.28-.18 2.25-.18 1.11 0 1.6.18 2.03.44.32.25.57.73.57 1.31 0 .66-.5 1.17-1.21 1.38v.07c.57.22.89.66 1.07 1.46.18.91.29 1.27.43 1.49h-1.46c-.18-.22-.29-.76-.46-1.46-.11-.66-.46-.95-1.21-.95h-.64v2.4h-.02Zm.04-3.39h.64c.75 0 1.35-.25 1.35-.87 0-.55-.39-.91-1.25-.91-.36 0-.61.04-.75.07v1.71Z"/></svg>